<svg id="Layer_1" data-name="Layer 1" xmlns="http://www.w3.org/2000/svg" viewBox="0 0 441 186"><defs><style>.cls-1{fill:#fff;}</style></defs><title>Logo_v.1ai</title><path class="cls-1" d="M98.52,72.4a21.71,21.71,0,1,0,21.71,21.71A21.71,21.71,0,0,0,98.52,72.4Zm0,27.64a5.93,5.93,0,1,1,5.93-5.93A5.93,5.93,0,0,1,98.52,100Z"/><path class="cls-1" d="M98.52,160.21A66.39,66.39,0,1,1,134.4,38a5.92,5.92,0,1,1-6.41,10A54.55,54.55,0,1,0,145.62,66.3a5.92,5.92,0,1,1,10.21-6,66.38,66.38,0,0,1-57.32,99.89Z"/><path class="cls-1" d="M98.52,138.93a44.52,44.52,0,1,1,24.06-82,5.57,5.57,0,0,1-6,9.36,33.39,33.39,0,1,0,10.79,11.25,5.56,5.56,0,1,1,9.6-5.62,44.51,44.51,0,0,1-38.43,67Z"/><path class="cls-1" d="M204.1,85.43c0,6,7.15,7.08,12.76,9,11.48,3.91,21.07,6.23,21.07,21.61,0,16.32-11.91,20.84-27.14,20.84a103.89,103.89,0,0,1-24.55-3l1.62-12.76a121,121,0,0,0,18.75,2.09c5.22,0,14,.19,14-6.61,0-6.53-6.15-7.15-11.87-8.89C198,104.42,187,101,187,86.17c0-15.54,10.86-20,24.63-20A102.89,102.89,0,0,1,236.93,69L235.3,81.53a89.07,89.07,0,0,0-17.48-2C212.37,79.52,204.1,79.56,204.1,85.43Z"/><path class="cls-1" d="M266.26,161.29H249.13V85.59c0-4.68.15-8.66.58-13.07,7.73-4.52,18.37-6.38,27.72-6.38,22.93,0,32.59,8.31,32.59,35.38,0,26.68-9.43,35.34-30.62,35.34a65.94,65.94,0,0,1-13.15-1.47Zm9.67-38c16.43,0,16.86-9.28,16.86-21.81,0-11.25-.66-21.92-15.35-21.92-3.79,0-8.16.62-10.75,1.82a88.27,88.27,0,0,0-.42,9.24v31.16A35.27,35.27,0,0,0,275.93,123.32Z"/><path class="cls-1" d="M322.24,67.07h17.28v68.86H322.24Z"/><path class="cls-1" d="M369.2,135.93H352.11V85.59c0-4.68.19-8.66.58-13.07,8.08-4.29,18.68-6.38,30.85-6.38,24.78,0,27.45,11.1,27.45,25.94v43.85H393.91V93.63c0-9.7-1.78-13.73-13.65-13.77-3.75,0-8.08.66-10.63,1.86A88.27,88.27,0,0,0,369.2,91Z"/></svg>