<svg xmlns="http://www.w3.org/2000/svg" x="0px" 
    y="0px" viewBox="0 0 322.76 322.77">
	<defs>
		<style>.cls-1{fill:#fff;}</style>
	</defs>
	<title>White spin</title>
	<g transform="translate(-18.62 -13.16)" id="Middle">
		<path style="fill:#6D15E6;" class="cls-1" d="M180,121.76a52.78,52.78,0,1,0,52.78,52.78A52.78,52.78,0,0,0,180,121.76Zm0,67.2a14.41,14.41,0,1,1,14.41-14.41A14.41,14.41,0,0,1,180,189Z" >
		<animateTransform attributeType="xml"
                    attributeName="transform"
                    type="rotate"
                    from="0 180 174.54" 
                    to="360 180 174.54" 
                    dur="4s"
                    repeatCount="indefinite"/>
	
		</path>	
	</g>
	<g id="Small_Ring" transform="translate(-18.62 -13.16)" data-name="Small Ring">
		<path style="fill:#6D15E6;" class="cls-1" d="M180,282.75A108.21,108.21,0,1,1,238.48,83.51a13.53,13.53,0,1,1-14.64,22.75,81.16,81.16,0,1,0,26.23,27.35,13.53,13.53,0,1,1,23.35-13.67A108.2,108.2,0,0,1,180,282.75Z" >
			<animateTransform 
				id="op" attributeType="xml"
                    attributeName="transform"
                    type="rotate"
                    from="0 180 174.54" 
                    to="360 180 174.54" 
                    dur="2s"
repeatCount="indefinite"                    
/>
		</path>	
	</g>
	<g transform="translate(-18.62 -13.16)" id="Big_RIng" data-name="Big RIng">
		<path style="fill:#6D15E6;" class="cls-1" d="M180,335.92c-89,0-161.38-72.4-161.38-161.38S91,13.16,180,13.16a160.81,160.81,0,0,1,87.21,25.62A14.39,14.39,0,1,1,251.64,63a132.09,132.09,0,0,0-71.64-21c-73.12,0-132.61,59.49-132.61,132.61S106.88,307.15,180,307.15s132.61-59.49,132.61-132.61a132.47,132.47,0,0,0-18.12-66.88,14.39,14.39,0,1,1,24.83-14.54,161.28,161.28,0,0,1,22.06,81.42C341.38,263.53,269,335.92,180,335.92Z" >
			<animateTransform attributeType="xml"
										id="opTwo"
                    attributeName="transform"
                    type="rotate"
                    from="0 180 174.54" 
                    to="360 180 174.54" 
										repeatCount="indefinite"                    
                    dur="3s"
                    />
		</path>	
	</g>
</svg>